<?xml version="1.0" encoding="UTF-8" standalone="no"?>
<!DOCTYPE svg PUBLIC "-//W3C//DTD SVG 1.1//EN" "http://www.w3.org/Graphics/SVG/1.1/DTD/svg11.dtd">
<svg width="100%" height="100%" viewBox="0 0 2374 2620" version="1.1" xmlns="http://www.w3.org/2000/svg" xmlns:xlink="http://www.w3.org/1999/xlink" xml:space="preserve" xmlns:serif="http://www.serif.com/" style="fill-rule:evenodd;clip-rule:evenodd;stroke-linecap:round;stroke-linejoin:round;stroke-miterlimit:1.5;">
    <g transform="matrix(1,0,0,1,-3716.51,-5781.6)">
        <g transform="matrix(2.62568,0,0,1,18900.8,-0.300758)">
            <g transform="matrix(0.730159,0,0,2.11624,-7401.58,-7373.6)">
                <rect x="2218.93" y="6218.43" width="1233.85" height="1233.85" style="fill:none;"/>
                <clipPath id="_clip1">
                    <rect x="2218.93" y="6218.43" width="1233.85" height="1233.85"/>
                </clipPath>
                <g clip-path="url(#_clip1)">
                    <g id="record" transform="matrix(4.93705,0,0,4.27002,-14221.9,4905.06)">
                        <path d="M3386,549C3351.02,522.001 3331.49,480.694 3330.16,438.942C3329.32,412.651 3335.7,386.183 3350,363C3373,325 3398,310 3444,308C3523,305 3580,360 3580,440C3580,517 3531.04,570.272 3455.04,570.272C3430.04,570.272 3403,562 3386,549Z" style="fill-rule:nonzero;"/>
                        <clipPath id="_clip2">
                            <path d="M3386,549C3351.02,522.001 3331.49,480.694 3330.16,438.942C3329.32,412.651 3335.7,386.183 3350,363C3373,325 3398,310 3444,308C3523,305 3580,360 3580,440C3580,517 3531.04,570.272 3455.04,570.272C3430.04,570.272 3403,562 3386,549Z" clip-rule="nonzero"/>
                        </clipPath>
                        <g clip-path="url(#_clip2)">
                            <g id="markers" transform="matrix(0.290568,0,0,0.110664,4447.19,-448.908)">
                                <g id="quarter">
                                    <g transform="matrix(0.405321,0,0,1.0785,-5403.47,502.704)">
                                        <path d="M4907.11,5788.51L4907.11,8159.56" style="fill:none;stroke:white;stroke-width:3.8px;"/>
                                    </g>
                                    <g transform="matrix(2.48188e-17,1.0785,-0.405321,6.60388e-17,-587.792,2731.88)">
                                        <path d="M4907.11,5788.51L4907.11,8159.56" style="fill:none;stroke:white;stroke-width:3.8px;"/>
                                    </g>
                                </g>
                                <g id="sixteens">
                                    <g transform="matrix(0.374472,0.412698,-0.155101,0.99641,-4170.41,-949.982)">
                                        <path d="M4907.11,5788.51L4907.11,8159.56" style="fill:none;stroke:white;stroke-opacity:0.25;stroke-width:1.92px;"/>
                                    </g>
                                    <g transform="matrix(-0.155101,0.99641,-0.374472,-0.412698,-41.8419,6012.85)">
                                        <path d="M4907.11,5788.51L4907.11,8159.56" style="fill:none;stroke:white;stroke-opacity:0.25;stroke-width:1.88px;"/>
                                    </g>
                                    <g transform="matrix(0.286605,0.762612,-0.286605,0.762612,-2822.12,-1036.53)">
                                        <path d="M4907.11,5788.51L4907.11,8159.56" style="fill:none;stroke:white;stroke-opacity:0.25;stroke-width:1.93px;"/>
                                    </g>
                                    <g transform="matrix(-0.286605,0.762612,-0.286605,-0.762612,-9.31703,9600.44)">
                                        <path d="M4907.11,5788.51L4907.11,8159.56" style="fill:none;stroke:white;stroke-opacity:0.25;stroke-width:1.87px;"/>
                                    </g>
                                    <g transform="matrix(0.155153,0.996352,-0.37445,0.412838,-1564.44,255.819)">
                                        <path d="M4907.11,5788.51L4907.11,8159.56" style="fill:none;stroke:white;stroke-opacity:0.25;stroke-width:1.92px;"/>
                                    </g>
                                    <g transform="matrix(-0.37445,0.412838,-0.155153,-0.996352,-495.007,12946.9)">
                                        <path d="M4907.11,5788.51L4907.11,8159.56" style="fill:none;stroke:white;stroke-opacity:0.25;stroke-width:1.88px;"/>
                                    </g>
                                </g>
                            </g>
                            <g id="record-donut" transform="matrix(0.0893467,0,0,0.0893467,3146.35,399.985)">
                                <path d="M3420.5,492.559C3429,499.059 3441,503.059 3453.5,503.059C3491.5,503.059 3517.5,476.559 3517.5,438.059C3517.5,398.059 3489,370.559 3449.5,372.059C3426.5,373.059 3414,380.559 3402.5,399.559C3384,429.559 3392,470.559 3420.5,492.559Z"/>
                                <path d="M3364.96,571.494L3342.16,550.172L3323.93,525.351L3310.53,497.918L3302.14,468.588L3298.95,437.971L3301.29,406.729L3309.53,375.768L3323.66,346.765L3349.81,313.442L3375.85,293.563L3405.22,280.698L3445.62,274.088L3446.11,274.068L3477.08,275.766L3507.49,283.484L3536.22,297.453L3561.88,317.515L3583.09,342.975L3598.7,372.6L3608.06,404.818L3611.11,438.059L3608.33,469.885L3599.7,501.03L3585.09,530.05L3564.95,555.358L3540.34,575.61L3512.68,590.019L3483.35,598.422L3453.5,601.114L3407.97,593.967L3365.3,571.754L3364.96,571.494ZM3420.5,492.559C3429,499.059 3441,503.059 3453.5,503.059C3491.5,503.059 3517.5,476.559 3517.5,438.059C3517.5,398.059 3489,370.559 3449.5,372.059C3426.5,373.059 3414,380.559 3402.5,399.559C3384,429.559 3392,470.559 3420.5,492.559Z" style="fill:white;"/>
                            </g>
                        </g>
                    </g>
                    <g id="tracks" transform="matrix(1.898,0,0,1.64156,-17112.1,-17998.2)">
                        <g transform="matrix(2.185,0,0,2.185,2960.76,14134.7)">
                            <path d="M3333.61,628.572C3328.64,614.857 3331.49,480.7 3330.16,438.951C3329.32,412.657 3335.7,386.186 3350,363C3373,325 3398,310 3444,308C3523,305 3582.09,358.755 3580.31,438.735C3578.6,514.911 3581.76,617.401 3580.68,628.572" style="fill:none;fill-rule:nonzero;stroke:rgb(255,6,151);stroke-width:1.27px;stroke-miterlimit:2;"/>
                        </g>
                        <g transform="matrix(1.885,0,0,1.885,3996.4,14265.8)">
                            <path d="M3336.08,659.059C3328.43,648.788 3331.64,481.027 3330.17,439.447C3329.24,412.99 3335.61,386.332 3350,363C3373,325 3398,310 3444,308C3523,305 3582.36,359.062 3580,439.027C3577.87,511.194 3576.36,645.578 3581.36,659.059" style="fill:none;fill-rule:nonzero;stroke:rgb(151,6,255);stroke-width:1.47px;stroke-miterlimit:2;"/>
                        </g>
                        <g transform="matrix(1.585,0,0,1.585,5033.77,14398.1)">
                            <path d="M3335.03,700.331C3328.59,712.25 3331.39,480.503 3330.15,438.652C3329.37,412.457 3335.76,386.098 3350,363C3373,325 3398,310 3444,308C3523,305 3580,358.652 3580,438.652C3580,515.652 3588.54,628.97 3580,700.331" style="fill:none;fill-rule:nonzero;stroke:rgb(6,68,255);stroke-width:1.75px;stroke-miterlimit:2;"/>
                        </g>
                        <g transform="matrix(1.285,0,0,1.285,6070.31,14529.7)">
                            <path d="M3336.17,761.422C3335.13,756.648 3331.39,480.502 3330.15,438.651C3329.37,412.456 3335.76,386.098 3350,363C3373,325 3398,310 3444,308C3523,305 3582.76,358.699 3580,438.651C3577.32,516.318 3593.39,758.559 3580,761.422" style="fill:none;fill-rule:nonzero;stroke:rgb(6,255,234);stroke-width:2.16px;stroke-miterlimit:2;"/>
                        </g>
                        <g transform="matrix(0.985,0,0,0.985,7106.81,14661.4)">
                            <path d="M3338.87,859.619C3324.63,832.512 3331.61,480.961 3330.17,439.346C3329.26,412.922 3335.63,386.302 3350,363C3373,325 3398,310 3444,308C3523,305 3580,358.543 3580,438.543C3580,515.543 3584.28,695.002 3580,859.619" style="fill:none;fill-rule:nonzero;stroke:rgb(6,255,27);stroke-width:2.82px;stroke-miterlimit:2;"/>
                        </g>
                        <g transform="matrix(0.685,0,0,0.685,8143.32,14793.1)">
                            <path d="M3341.63,1043.83C3316.63,1043.83 3331.3,480.296 3330.14,438.339C3329.42,412.246 3335.81,386.006 3350,363C3373,325 3398,310 3444,308C3523,305 3580,358.339 3580,438.339C3580,493.009 3583.53,659.347 3583.07,833.533C3582.88,904.68 3582.03,977.137 3580,1043.83" style="fill:none;fill-rule:nonzero;stroke:rgb(193,255,6);stroke-width:4.05px;stroke-miterlimit:2;"/>
                        </g>
                        <g transform="matrix(0.385,0,0,0.385,9179.85,14924.8)">
                            <path d="M3330.13,1515.13C3343.15,1502.87 3331.14,479.959 3330.13,437.829C3329.5,411.905 3335.91,385.856 3350,363C3373,325 3398,310 3444,308C3523,305 3581.28,357.829 3581.28,437.829C3581.28,514.829 3585.53,1515.67 3581.28,1515.13" style="fill:none;fill-rule:nonzero;stroke:rgb(255,110,6);stroke-width:7.21px;stroke-miterlimit:2;"/>
                        </g>
                    </g>
                    <g id="loop-tracks" transform="matrix(1.898,0,0,1.64156,-17112.1,-17997.6)">
                        <g transform="matrix(2.185,0,0,2.185,2960.76,14134.7)">
                            <path d="M3386,549C3329,505 3313,423 3350,363C3373,325 3398,310 3444,308C3523,305 3580,360 3580,440C3580,517 3528,570 3452,570C3427,570 3403,562 3386,549Z" style="fill:none;fill-rule:nonzero;stroke:rgb(255,6,151);stroke-width:1.27px;stroke-miterlimit:2;"/>
                        </g>
                        <g transform="matrix(1.885,0,0,1.885,3996.4,14265.8)">
                            <path d="M3386,549C3329,505 3313,423 3350,363C3373,325 3398,310 3444,308C3523,305 3580,360 3580,440C3580,517 3528,570 3452,570C3427,570 3403,562 3386,549Z" style="fill:none;fill-rule:nonzero;stroke:rgb(151,6,255);stroke-width:1.47px;stroke-miterlimit:2;"/>
                        </g>
                        <g transform="matrix(1.585,0,0,1.585,5033.77,14398.1)">
                            <path d="M3386,549C3329,505 3313,423 3350,363C3373,325 3398,310 3444,308C3523,305 3580,360 3580,440C3580,517 3528,570 3452,570C3427,570 3403,562 3386,549Z" style="fill:none;fill-rule:nonzero;stroke:rgb(6,68,255);stroke-width:1.75px;stroke-miterlimit:2;"/>
                        </g>
                        <g transform="matrix(1.285,0,0,1.285,6070.31,14529.7)">
                            <path d="M3386,549C3329,505 3313,423 3350,363C3373,325 3398,310 3444,308C3523,305 3580,360 3580,440C3580,517 3528,570 3452,570C3427,570 3403,562 3386,549Z" style="fill:none;fill-rule:nonzero;stroke:rgb(6,255,234);stroke-width:2.16px;stroke-miterlimit:2;"/>
                        </g>
                        <g transform="matrix(0.985,0,0,0.985,7106.81,14661.4)">
                            <path d="M3386,549C3329,505 3313,423 3350,363C3373,325 3398,310 3444,308C3523,305 3580,360 3580,440C3580,517 3528,570 3452,570C3427,570 3403,562 3386,549Z" style="fill:none;fill-rule:nonzero;stroke:rgb(6,255,27);stroke-width:2.82px;stroke-miterlimit:2;"/>
                        </g>
                        <g transform="matrix(0.685,0,0,0.685,8143.32,14793.1)">
                            <path d="M3386,549C3329,505 3313,423 3350,363C3373,325 3398,310 3444,308C3523,305 3580,360 3580,440C3580,517 3528,570 3452,570C3427,570 3403,562 3386,549Z" style="fill:none;fill-rule:nonzero;stroke:rgb(193,255,6);stroke-width:4.05px;stroke-miterlimit:2;"/>
                        </g>
                        <g transform="matrix(0.385,0,0,0.385,9179.85,14924.8)">
                            <path d="M3386,549C3329,505 3313,423 3350,363C3373,325 3398,310 3444,308C3523,305 3580,360 3580,440C3580,517 3528,570 3452,570C3427,570 3403,562 3386,549Z" style="fill:none;fill-rule:nonzero;stroke:rgb(255,110,6);stroke-width:7.21px;stroke-miterlimit:2;"/>
                        </g>
                    </g>
                </g>
                <path d="M3454.95,6218.43L3454.95,7452.28C3454.95,7453.36 3453.97,7454.25 3452.78,7454.25L2218.93,7454.25C2217.73,7454.25 2216.75,7453.36 2216.75,7452.28L2216.75,6218.43C2216.75,6217.34 2217.73,6216.46 2218.93,6216.46L3452.78,6216.46C3453.97,6216.46 3454.95,6217.34 3454.95,6218.43ZM3452.78,6218.43L2218.93,6218.43L2218.93,7452.28L3452.78,7452.28L3452.78,6218.43Z" style="fill:rgb(33,33,33);fill-opacity:0.25;"/>
            </g>
        </g>
    </g>
</svg>
